PathFileType	4	(X/Y/Z)	C:/Users/opensim2020/Desktop/walking_exp_matlab/subject03_walking13_straight_03.trc																																																																																																																																								
DataRate	CameraRate	NumFrames	NumMarkers	Units	OrigDataRate	OrigDataStartFrame	OrigNumFrames																																																																																																																																				
100	100	4	46	mm	100	1783	209																																																																																																																																				
Frame#	Time	LFHD			RFHD			LBHD			RBHD			C7			T10			CLAV			STRN			RBAK			LSHO			LUPA			LELB			LFRM			LWRA			LWRB			LFIN			RSHO			RUPA			RELB			RFRM			RWRA			RWRB			RFIN			LASI			RASI			LPSI			RPSI			LTHI			LKNE			LTIB			LANK			LHEE			LTOE			RTHI			RKNE			RTIB			RANK			RHEE			RTOE			*39			*40			*41			*42			*43			*44			*45		
		X1	Y1	Z1	X2	Y2	Z2	X3	Y3	Z3	X4	Y4	Z4	X5	Y5	Z5	X6	Y6	Z6	X7	Y7	Z7	X8	Y8	Z8	X9	Y9	Z9	X10	Y10	Z10	X11	Y11	Z11	X12	Y12	Z12	X13	Y13	Z13	X14	Y14	Z14	X15	Y15	Z15	X16	Y16	Z16	X17	Y17	Z17	X18	Y18	Z18	X19	Y19	Z19	X20	Y20	Z20	X21	Y21	Z21	X22	Y22	Z22	X23	Y23	Z23	X24	Y24	Z24	X25	Y25	Z25	X26	Y26	Z26	X27	Y27	Z27	X28	Y28	Z28	X29	Y29	Z29	X30	Y30	Z30	X31	Y31	Z31	X32	Y32	Z32	X33	Y33	Z33	X34	Y34	Z34	X35	Y35	Z35	X36	Y36	Z36	X37	Y37	Z37	X38	Y38	Z38	X39	Y39	Z39	X40	Y40	Z40	X41	Y41	Z41	X42	Y42	Z42	X43	Y43	Z43	X44	Y44	Z44	X45	Y45	Z45	X46	Y46	Z46
																																																																																																																																											
157	1.56	774.78235	1617.7771	-1033.99573	751.60596	1618.69312	-903.0484	656.99487	1554.32397	-1051.11206	639.09186	1555.5033	-921.88629	639.88312	1395.79089	-995.28204	628.22345	1083.52759	-996.06659	766.45355	1328.88062	-982.58759	821.58655	1166.99731	-981.37109	593.02869	1217.93616	-901.77185	732.56909	1363.49255	-1143.46936	701.65924	1166.62854	-1216.88965	685.53595	1044.27393	-1229.25024	674.3811	913.7196	-1233.11121	647.33478	794.74603	-1209.42114	639.98773	808.03687	-1264.53137	604.19733	726.1048	-1257.25952	705.12726	1350.43982	-827.84387	734.22961	1134.77063	-746.9566	777.57025	1034.82654	-728.48932	865.58344	932.3576	-731.14081	950.15991	883.44598	-765.43927	923.07141	849.98053	-734.65808	986.92139	817.30255	-736.59351	812.66315	937.58325	-1096.46484	778.60284	914.54431	-863.4538	642.68341	955.27484	-1070.89307	625.34869	949.28583	-921.83282	819.72046	641.09143	-1153.69458	864.24451	472.56607	-1105.27332	829.95117	274.01483	-1113.66919	811.80634	66.22454	-1075.46729	767.28558	32.4829	-1043.98962	961.04614	30.75412	-1036.85986	700.48138	614.6676	-831.71478	704.04779	434.67151	-856.36188	550.22449	319.20892	-859.39386	376.14981	197.08385	-912.38293	335.74402	226.95744	-965.76941	393.51187	56.79025	-947.27844	676.12024	1661.24707	-998.10632	NaN	NaN	NaN	NaN	NaN	NaN	NaN	NaN	NaN	NaN	NaN	NaN	NaN	NaN	NaN	NaN	NaN	NaN
158	1.57	788.19885	1619.48279	-1033.26086	764.89404	1620.45764	-902.38403	670.4054	1556.06665	-1050.29749	652.45099	1557.40527	-921.0675	653.38507	1397.61963	-995.38141	641.87158	1085.32397	-996.14417	779.80573	1330.78809	-981.31317	835.08459	1168.90491	-979.68433	605.74335	1219.58643	-902.27905	747.92438	1365.22485	-1142.45007	719.44293	1168.20471	-1216.49255	704.32007	1045.73682	-1229.2655	695.12231	915.0498	-1233.08887	669.54144	795.61029	-1209.15027	662.57306	808.82538	-1264.51746	630.19482	725.91235	-1257.57068	716.81549	1351.99231	-827.18695	745.39294	1135.63599	-747.59802	787.65833	1034.96204	-729.77765	874.40137	931.3042	-732.35779	958.57141	881.24884	-766.17395	930.62299	848.00531	-735.96655	993.75177	813.66748	-738.3418	826.13702	939.11456	-1096.19202	791.12573	915.82892	-862.71405	656.42731	957.047	-1070.95288	638.38861	950.19147	-921.96899	826.47827	640.5022	-1153.62488	868.95331	471.70355	-1105.56641	832.08362	274.00842	-1113.86536	811.89087	66.28887	-1075.6012	767.22491	32.53465	-1044.01819	961.07971	30.68728	-1036.86023	719.87604	615.17657	-832.19006	731.2182	434.9527	-856.22101	577.18005	321.5517	-860.27118	399.7756	204.04912	-913.44745	359.11017	231.72252	-967.42688	419.75119	62.66275	-944.50677	NaN	NaN	NaN	NaN	NaN	NaN	NaN	NaN	NaN	NaN	NaN	NaN	NaN	NaN	NaN	NaN	NaN	NaN	NaN	NaN	NaN
159	1.58	801.62329	1621.28992	-1032.4082	778.2666	1622.38147	-901.54761	683.76837	1557.91003	-1049.40515	665.80194	1559.40564	-920.1864	666.78448	1399.51819	-995.23621	655.30664	1087.15466	-996.04651	793.01428	1332.73303	-979.94788	848.37146	1170.82324	-977.89594	618.29022	1221.16431	-902.91772	763.07709	1366.97498	-1141.2915	737.6532	1169.78601	-1216.03296	723.50507	1047.21021	-1229.19128	716.22382	916.26001	-1232.83044	692.96301	796.85944	-1208.99792	685.96759	809.68225	-1264.4856	657.16321	725.78723	-1257.68457	728.41473	1353.60864	-826.39618	756.3183	1136.52588	-748.08362	797.67877	1035.15051	-731.02216	882.94299	930.13849	-733.52124	966.61102	878.80957	-767.08112	937.80359	845.84796	-737.19342	1000.15222	809.84216	-739.90778	839.50006	940.43842	-1095.88928	803.52643	917.37	-861.93567	670.28107	959.16089	-1070.98706	651.41156	951.4906	-922.08679	833.53229	640.1319	-1153.06055	873.42505	471.00299	-1105.46265	833.99866	274.02872	-1113.90808	812.3493	66.43199	-1074.9491	766.46893	33.35174	-1043.87439	961.04144	30.62583	-1036.84363	739.23907	616.49945	-832.57959	757.99548	436.59506	-855.95349	603.61432	324.76025	-861.44666	425.44827	209.04695	-914.34705	384.02386	234.60664	-968.96667	448.82443	67.297	-941.7085	702.284	1667.69031	-996.43011	NaN	NaN	NaN	NaN	NaN	NaN	NaN	NaN	NaN	NaN	NaN	NaN	NaN	NaN	NaN	NaN	NaN	NaN
160	1.59	815.03766	1623.11987	-1031.45581	791.57471	1624.38818	-900.6156	697.13257	1559.85034	-1048.46436	679.15894	1561.49719	-919.26117	680.04749	1401.45154	-994.94232	668.59473	1088.99548	-996.00262	806.05823	1334.70496	-978.52496	861.54254	1172.82495	-976.18109	630.71625	1222.73145	-903.67676	777.96533	1368.75745	-1139.97278	755.69403	1171.29749	-1215.04468	743.03314	1048.70911	-1228.85925	737.84668	917.57843	-1232.33582	716.82355	798.11444	-1208.96313	709.85944	810.41315	-1264.03406	684.9704	725.77899	-1257.56372	739.77417	1355.2948	-825.4502	767.08441	1137.47217	-748.45007	807.67096	1035.29761	-732.17389	891.25238	928.85516	-734.63885	974.11389	875.97748	-767.86023	944.43646	843.46423	-738.28717	1006.07257	805.70837	-741.53094	852.5047	941.35114	-1095.98035	815.99634	919.138	-861.18958	683.7027	961.24011	-1071.05359	664.41449	953.2702	-922.27246	841.15161	640.39856	-1152.43848	877.77924	470.52274	-1105.12817	835.8811	274.05966	-1113.89929	812.35242	66.53113	-1075.02734	766.09167	33.51834	-1043.70496	960.99451	30.53555	-1036.8053	758.72345	618.29279	-832.84595	784.33154	439.2883	-855.73749	630.21063	328.00815	-862.12952	452.52386	211.6646	-915.034	410.11243	235.4505	-970.33362	479.854	70.54375	-939.24744	716.25287	1670.00732	-996.20624	NaN	NaN	NaN	NaN	NaN	NaN	NaN	NaN	NaN	NaN	NaN	NaN	NaN	NaN	NaN	NaN	NaN	NaN
